<svg width="120" height="120" viewBox="0 0 120 120" fill="none" xmlns="http://www.w3.org/2000/svg">
<rect width="120" height="120" fill="url(#paint0_radial_1599_23)"/>
<path d="M99.1346 33.8355C99.0577 14.2393 75.9808 3.797 61.25 16.6816C60.8461 17.0278 60.4615 17.4124 60.0769 17.7778C59.6923 17.3932 59.3077 17.0278 58.9038 16.6816C50.2308 8.77777 35.8846 9.23931 27.6923 17.6816C23.4423 21.9124 21 27.8547 21 33.8162V86.3547C21 92.4316 23.3846 97.9701 27.2885 102.047V102.259C36.3846 111.085 50.7692 111.778 60.0769 102.393C69.3654 111.778 83.7884 111.085 92.8654 102.259V102.047C96.75 97.9508 99.1538 92.4316 99.1538 86.3547V33.8162L99.1346 33.8355Z" fill="black"/>
<path d="M43.8658 97.491C37.6928 97.491 32.6543 92.4718 32.6543 86.2794V33.8756C32.6543 27.7025 37.6735 22.6641 43.8658 22.6641C50.0581 22.6641 55.0774 27.6833 55.0774 33.8756V86.2794C55.0774 92.4525 50.0581 97.491 43.8658 97.491ZM43.8658 26.2602C39.6543 26.2602 36.2504 29.6833 36.2504 33.8756V86.2794C36.2504 90.491 39.6735 93.8948 43.8658 93.8948C48.0581 93.8948 51.4812 90.4718 51.4812 86.2794V33.8756C51.4812 29.6641 48.0581 26.2602 43.8658 26.2602Z" fill="#EF3B42"/>
<path d="M43.8645 39.3149C40.8837 39.3149 38.4414 36.8918 38.4414 33.8918C38.4414 30.8918 40.8645 28.4688 43.8645 28.4688C46.8645 28.4688 49.2876 30.8918 49.2876 33.8918C49.2876 36.8918 46.8645 39.3149 43.8645 39.3149ZM43.8645 32.0457C42.8453 32.0457 42.0376 32.8726 42.0376 33.8726C42.0376 34.8726 42.8645 35.6995 43.8645 35.6995C44.8645 35.6995 45.6914 34.8726 45.6914 33.8726C45.6914 32.8726 44.8645 32.0457 43.8645 32.0457Z" fill="#EF3B42"/>
<path d="M76.2492 71.7016C73.2685 71.7016 70.8262 69.2785 70.8262 66.2785C70.8262 63.2785 73.2492 60.8555 76.2492 60.8555C79.2492 60.8555 81.6723 63.2785 81.6723 66.2785C81.6723 69.2785 79.2492 71.7016 76.2492 71.7016ZM76.2492 64.4324C75.23 64.4324 74.4223 65.2593 74.4223 66.2593C74.4223 67.2593 75.2492 68.0862 76.2492 68.0862C77.2492 68.0862 78.0762 67.2593 78.0762 66.2593C78.0762 65.2593 77.2492 64.4324 76.2492 64.4324Z" fill="#02A7A3"/>
<path d="M76.2506 97.491C70.0775 97.491 65.0391 92.4718 65.0391 86.2794V33.8756C65.0391 27.7025 70.0583 22.6641 76.2506 22.6641C82.4429 22.6641 87.4621 27.6833 87.4621 33.8756V86.2794C87.4621 92.4525 82.4429 97.491 76.2506 97.491ZM76.2506 26.2602C72.0391 26.2602 68.6352 29.6833 68.6352 33.8756V86.2794C68.6352 90.491 72.0583 93.8948 76.2506 93.8948C80.4429 93.8948 83.866 90.4718 83.866 86.2794V33.8756C83.866 29.6641 80.4429 26.2602 76.2506 26.2602Z" fill="#02A7A3"/>
<path d="M76.2497 77.4874C73.2497 77.4874 70.442 76.3143 68.3266 74.1989L35.942 41.8143C31.5766 37.4489 31.5766 30.3335 35.942 25.9681C38.0574 23.8528 40.8651 22.6797 43.8651 22.6797C46.8651 22.6797 49.6728 23.8528 51.7882 25.9681L84.1728 58.3528C88.5382 62.7181 88.5382 69.8335 84.1728 74.1989C82.0574 76.3143 79.2497 77.4874 76.2497 77.4874ZM43.8651 26.2566C41.8266 26.2566 39.9228 27.0451 38.4805 28.4874C35.4997 31.4681 35.4997 36.2951 38.4805 39.2566L70.8651 71.6412C72.3074 73.0835 74.2112 73.872 76.2497 73.872C78.2882 73.872 80.192 73.0835 81.6343 71.6412C84.6151 68.6605 84.6151 63.8335 81.6343 60.872L49.2497 28.4874C47.8074 27.0451 45.9036 26.2566 43.8651 26.2566Z" fill="#F7AB14"/>
<defs>
<radialGradient id="paint0_radial_1599_23" cx="0" cy="0" r="1" gradientUnits="userSpaceOnUse" gradientTransform="translate(60 60) rotate(90) scale(60)">
<stop offset="0.505" stop-color="#492222"/>
<stop offset="1" stop-color="#AF5151"/>
</radialGradient>
</defs>
</svg>
