<svg width="334" height="444" viewBox="0 0 334 444" fill="none" xmlns="http://www.w3.org/2000/svg">
<g filter="url(#filter0_d_4019_8486)">
<mask id="path-1-inside-1_4019_8486" fill="white">
<path d="M265.221 0C273.589 0 281.519 3.74306 286.838 10.2038L323.617 54.8794C327.744 59.892 330 66.1829 330 72.6756V412C330 427.464 317.464 440 302 440H28C12.536 440 0 427.464 0 412V28C0 12.536 12.536 0 28 0H265.221Z"/>
</mask>
<path d="M265.221 0C273.589 0 281.519 3.74306 286.838 10.2038L323.617 54.8794C327.744 59.892 330 66.1829 330 72.6756V412C330 427.464 317.464 440 302 440H28C12.536 440 0 427.464 0 412V28C0 12.536 12.536 0 28 0H265.221Z" fill="#3D3D3D"/>
<path d="M323.617 54.8794L324.389 54.2438L323.617 54.8794ZM286.838 10.2038L286.066 10.8394L322.845 55.515L323.617 54.8794L324.389 54.2438L287.61 9.56821L286.838 10.2038ZM330 72.6756H329V412H330H331V72.6756H330ZM302 440V439H28V440V441H302V440ZM0 412H1V28H0H-1V412H0ZM28 0V1H265.221V0V-1H28V0ZM0 28H1C1 13.0883 13.0883 1 28 1V0V-1C11.9837 -1 -1 11.9837 -1 28H0ZM28 440V439C13.0883 439 1 426.912 1 412H0H-1C-1 428.016 11.9837 441 28 441V440ZM330 412H329C329 426.912 316.912 439 302 439V440V441C318.016 441 331 428.016 331 412H330ZM323.617 54.8794L322.845 55.515C326.824 60.3486 329 66.4148 329 72.6756H330H331C331 65.951 328.663 59.4354 324.389 54.2438L323.617 54.8794ZM286.838 10.2038L287.61 9.56821C282.101 2.87674 273.888 -1 265.221 -1V0V1C273.29 1 280.937 4.60938 286.066 10.8394L286.838 10.2038Z" fill="black" mask="url(#path-1-inside-1_4019_8486)"/>
</g>
<defs>
<filter id="filter0_d_4019_8486" x="0" y="0" width="334" height="444" filterUnits="userSpaceOnUse" color-interpolation-filters="sRGB">
<feFlood flood-opacity="0" result="BackgroundImageFix"/>
<feColorMatrix in="SourceAlpha" type="matrix" values="0 0 0 0 0 0 0 0 0 0 0 0 0 0 0 0 0 0 127 0" result="hardAlpha"/>
<feOffset dx="4" dy="4"/>
<feComposite in2="hardAlpha" operator="out"/>
<feColorMatrix type="matrix" values="0 0 0 0 0 0 0 0 0 0 0 0 0 0 0 0 0 0 1 0"/>
<feBlend mode="normal" in2="BackgroundImageFix" result="effect1_dropShadow_4019_8486"/>
<feBlend mode="normal" in="SourceGraphic" in2="effect1_dropShadow_4019_8486" result="shape"/>
</filter>
</defs>
</svg>
